{
	"asset": {
		"generator": "Unity 5.3.4f1",
		"extras": {
			"exporterVersion" : "2.1.1"
		},
		"version": "2.0"
	},
	"accessors": [
		{
			"bufferView": 2,
			"byteOffset": 0,
			"componentType": 5126,
			"count": 11133,
			"max": [ 1.299979, 4.513768, -0.02086456 ],
			"min": [ -1.299981, -3.663995, -3.03072 ],
			"type": "VEC3"
		},
		{
			"bufferView": 2,
			"byteOffset": 133596,
			"componentType": 5126,
			"count": 11133,
			"max": [ 1, 1, 1 ],
			"min": [ -1, -1, -1 ],
			"type": "VEC3"
		},
		{
			"bufferView": 3,
			"byteOffset": 0,
			"componentType": 5126,
			"count": 11133,
			"max": [ 1, 1, 1, 1 ],
			"min": [ 1, 1, 1, 1 ],
			"type": "VEC4"
		},
		{
			"bufferView": 1,
			"byteOffset": 0,
			"componentType": 5126,
			"count": 11133,
			"max": [ 0.9985, 0.9971 ],
			"min": [ 0.0011, 0.0022 ],
			"type": "VEC2"
		},
		{
			"bufferView": 1,
			"byteOffset": 89064,
			"componentType": 5126,
			"count": 11133,
			"max": [ 0.9990234, 0.9990234 ],
			"min": [ 0.0009765625, 0.0009765625 ],
			"type": "VEC2"
		},
		{
			"bufferView": 3,
			"byteOffset": 178128,
			"componentType": 5126,
			"count": 11133,
			"max": [ 1, 1, 1, 1 ],
			"min": [ -1, -1, -1, -1 ],
			"type": "VEC4"
		},
		{
			"bufferView": 0,
			"byteOffset": 0,
			"componentType": 5123,
			"count": 25830,
			"max": [ 11132 ],
			"min": [ 0 ],
			"type": "SCALAR"
		},
		{
			"bufferView": 2,
			"byteOffset": 267192,
			"componentType": 5126,
			"count": 902,
			"max": [ 0.5123743, 0.1294842, 0.2466836 ],
			"min": [ -0.4804581, -8.443915, -0.3627679 ],
			"type": "VEC3"
		},
		{
			"bufferView": 2,
			"byteOffset": 278016,
			"componentType": 5126,
			"count": 902,
			"max": [ 1, 1, 0.9999821 ],
			"min": [ -1, -0.9999362, -1 ],
			"type": "VEC3"
		},
		{
			"bufferView": 3,
			"byteOffset": 356256,
			"componentType": 5126,
			"count": 902,
			"max": [ 1, 1, 1, 1 ],
			"min": [ 1, 1, 1, 1 ],
			"type": "VEC4"
		},
		{
			"bufferView": 1,
			"byteOffset": 178128,
			"componentType": 5126,
			"count": 902,
			"max": [ 0.490171, 0.5484108 ],
			"min": [ 0.4536271, 0.458789 ],
			"type": "VEC2"
		},
		{
			"bufferView": 1,
			"byteOffset": 185344,
			"componentType": 5126,
			"count": 902,
			"max": [ 0.9970703, 0.9990234 ],
			"min": [ 0.0009765625, 0.006835938 ],
			"type": "VEC2"
		},
		{
			"bufferView": 3,
			"byteOffset": 370688,
			"componentType": 5126,
			"count": 902,
			"max": [ 1, 1, 0.999845, 1 ],
			"min": [ -1, -0.9999362, -0.9999362, -1 ],
			"type": "VEC4"
		},
		{
			"bufferView": 0,
			"byteOffset": 51660,
			"componentType": 5123,
			"count": 1776,
			"max": [ 901 ],
			"min": [ 0 ],
			"type": "SCALAR"
		},
		{
			"bufferView": 2,
			"byteOffset": 288840,
			"componentType": 5126,
			"count": 670,
			"max": [ 0.5164729, 8.914101, 0.08981586 ],
			"min": [ -0.4756471, -0.07900572, -0.8703198 ],
			"type": "VEC3"
		},
		{
			"bufferView": 2,
			"byteOffset": 296880,
			"componentType": 5126,
			"count": 670,
			"max": [ 1, 0.9915188, 0.9998939 ],
			"min": [ -1, -0.9999999, -1 ],
			"type": "VEC3"
		},
		{
			"bufferView": 3,
			"byteOffset": 385120,
			"componentType": 5126,
			"count": 670,
			"max": [ 1, 1, 1, 1 ],
			"min": [ 1, 1, 1, 1 ],
			"type": "VEC4"
		},
		{
			"bufferView": 1,
			"byteOffset": 192560,
			"componentType": 5126,
			"count": 670,
			"max": [ 0.490171, 0.5484108 ],
			"min": [ 0.4561022, 0.458789 ],
			"type": "VEC2"
		},
		{
			"bufferView": 1,
			"byteOffset": 197920,
			"componentType": 5126,
			"count": 670,
			"max": [ 0.9912109, 0.9931641 ],
			"min": [ 0.0009765625, 0.0009765625 ],
			"type": "VEC2"
		},
		{
			"bufferView": 3,
			"byteOffset": 395840,
			"componentType": 5126,
			"count": 670,
			"max": [ 1, 0.9609702, 0.9333042, 1 ],
			"min": [ -0.9999999, -0.9314293, -0.9982559, -1 ],
			"type": "VEC4"
		},
		{
			"bufferView": 0,
			"byteOffset": 55212,
			"componentType": 5123,
			"count": 1572,
			"max": [ 669 ],
			"min": [ 0 ],
			"type": "SCALAR"
		},
		{
			"bufferView": 2,
			"byteOffset": 304920,
			"componentType": 5126,
			"count": 2807,
			"max": [ 0.4521405, 0.04931307, 0.3564999 ],
			"min": [ -0.4253644, -5.807476, -0.284255 ],
			"type": "VEC3"
		},
		{
			"bufferView": 2,
			"byteOffset": 338604,
			"componentType": 5126,
			"count": 2807,
			"max": [ 1, 0.9996173, 1 ],
			"min": [ -1, -0.9999897, -1 ],
			"type": "VEC3"
		},
		{
			"bufferView": 3,
			"byteOffset": 406560,
			"componentType": 5126,
			"count": 2807,
			"max": [ 1, 1, 1, 1 ],
			"min": [ 1, 1, 1, 1 ],
			"type": "VEC4"
		},
		{
			"bufferView": 1,
			"byteOffset": 203280,
			"componentType": 5126,
			"count": 2807,
			"max": [ 0.4901688, 0.5762682 ],
			"min": [ 0.4536271, 0.4602225 ],
			"type": "VEC2"
		},
		{
			"bufferView": 1,
			"byteOffset": 225736,
			"componentType": 5126,
			"count": 2807,
			"max": [ 0.9990234, 0.9990234 ],
			"min": [ 0.0009765625, 0.006835938 ],
			"type": "VEC2"
		},
		{
			"bufferView": 3,
			"byteOffset": 451472,
			"componentType": 5126,
			"count": 2807,
			"max": [ 1, 0.9999974, 0.9960403, 1 ],
			"min": [ -1, -0.9998423, -0.9998456, -1 ],
			"type": "VEC4"
		},
		{
			"bufferView": 0,
			"byteOffset": 58356,
			"componentType": 5123,
			"count": 5004,
			"max": [ 2806 ],
			"min": [ 0 ],
			"type": "SCALAR"
		},
		{
			"bufferView": 2,
			"byteOffset": 372288,
			"componentType": 5126,
			"count": 234,
			"max": [ 0.3251514, 0.05957758, 0.05526972 ],
			"min": [ -0.2861428, -1.553451, -0.3361092 ],
			"type": "VEC3"
		},
		{
			"bufferView": 2,
			"byteOffset": 375096,
			"componentType": 5126,
			"count": 234,
			"max": [ 1, 0.9850927, 0.9865501 ],
			"min": [ -1, -0.9850923, -0.9865497 ],
			"type": "VEC3"
		},
		{
			"bufferView": 3,
			"byteOffset": 496384,
			"componentType": 5126,
			"count": 234,
			"max": [ 1, 1, 1, 1 ],
			"min": [ 1, 1, 1, 1 ],
			"type": "VEC4"
		},
		{
			"bufferView": 1,
			"byteOffset": 248192,
			"componentType": 5126,
			"count": 234,
			"max": [ 0.4858034, 0.5484108 ],
			"min": [ 0.4536271, 0.5187096 ],
			"type": "VEC2"
		},
		{
			"bufferView": 1,
			"byteOffset": 250064,
			"componentType": 5126,
			"count": 234,
			"max": [ 0.9755859, 0.9951172 ],
			"min": [ 0.03027344, 0.006835938 ],
			"type": "VEC2"
		},
		{
			"bufferView": 3,
			"byteOffset": 500128,
			"componentType": 5126,
			"count": 234,
			"max": [ 1, 0.9865501, 0.984701, 1 ],
			"min": [ -1, -0.9865497, -0.9567071, -1 ],
			"type": "VEC4"
		},
		{
			"bufferView": 0,
			"byteOffset": 68364,
			"componentType": 5123,
			"count": 372,
			"max": [ 233 ],
			"min": [ 0 ],
			"type": "SCALAR"
		},
		{
			"bufferView": 2,
			"byteOffset": 377904,
			"componentType": 5126,
			"count": 238,
			"max": [ 0.2670992, 0.8497136, 0.0632538 ],
			"min": [ -0.2670992, -0.8459406, -0.05307629 ],
			"type": "VEC3"
		},
		{
			"bufferView": 2,
			"byteOffset": 380760,
			"componentType": 5126,
			"count": 238,
			"max": [ 1, 0.9999936, 0.9999937 ],
			"min": [ -1, -0.9999936, -0.998455 ],
			"type": "VEC3"
		},
		{
			"bufferView": 3,
			"byteOffset": 503872,
			"componentType": 5126,
			"count": 238,
			"max": [ 1, 1, 1, 1 ],
			"min": [ 1, 1, 1, 1 ],
			"type": "VEC4"
		},
		{
			"bufferView": 1,
			"byteOffset": 251936,
			"componentType": 5126,
			"count": 238,
			"max": [ 0.4858034, 0.5484108 ],
			"min": [ 0.4536271, 0.5187096 ],
			"type": "VEC2"
		},
		{
			"bufferView": 1,
			"byteOffset": 253840,
			"componentType": 5126,
			"count": 238,
			"max": [ 0.9970703, 0.9951172 ],
			"min": [ 0.004882813, 0.006835938 ],
			"type": "VEC2"
		},
		{
			"bufferView": 3,
			"byteOffset": 507680,
			"componentType": 5126,
			"count": 238,
			"max": [ 1, 0.998455, 0.9972973, 1 ],
			"min": [ -1, -0.9984549, -0.9510514, 1 ],
			"type": "VEC4"
		},
		{
			"bufferView": 0,
			"byteOffset": 69108,
			"componentType": 5123,
			"count": 372,
			"max": [ 237 ],
			"min": [ 0 ],
			"type": "SCALAR"
		},
		{
			"bufferView": 2,
			"byteOffset": 383616,
			"componentType": 5126,
			"count": 238,
			"max": [ 0.5203586, 0.1758308, 0.1314571 ],
			"min": [ -0.4811336, -0.8108876, -0.5084355 ],
			"type": "VEC3"
		},
		{
			"bufferView": 2,
			"byteOffset": 386472,
			"componentType": 5126,
			"count": 238,
			"max": [ 1, 1, 1 ],
			"min": [ -1, -1, -1 ],
			"type": "VEC3"
		},
		{
			"bufferView": 3,
			"byteOffset": 511488,
			"componentType": 5126,
			"count": 238,
			"max": [ 1, 1, 1, 1 ],
			"min": [ 1, 1, 1, 1 ],
			"type": "VEC4"
		},
		{
			"bufferView": 1,
			"byteOffset": 255744,
			"componentType": 5126,
			"count": 238,
			"max": [ 0.4858034, 0.5484108 ],
			"min": [ 0.4536271, 0.5187096 ],
			"type": "VEC2"
		},
		{
			"bufferView": 1,
			"byteOffset": 257648,
			"componentType": 5126,
			"count": 238,
			"max": [ 0.9345703, 0.9951172 ],
			"min": [ 0.0009765625, 0.04394531 ],
			"type": "VEC2"
		},
		{
			"bufferView": 3,
			"byteOffset": 515296,
			"componentType": 5126,
			"count": 238,
			"max": [ 1, 0.8660298, 1, 1 ],
			"min": [ -0.9999771, -1, -1, -1 ],
			"type": "VEC4"
		},
		{
			"bufferView": 0,
			"byteOffset": 69852,
			"componentType": 5123,
			"count": 444,
			"max": [ 237 ],
			"min": [ 0 ],
			"type": "SCALAR"
		},
		{
			"bufferView": 2,
			"byteOffset": 389328,
			"componentType": 5126,
			"count": 60,
			"max": [ 0.2835024, 0.5929569, 0.02132991 ],
			"min": [ -0.2443312, -0.4112134, -0.03182019 ],
			"type": "VEC3"
		},
		{
			"bufferView": 2,
			"byteOffset": 390048,
			"componentType": 5126,
			"count": 60,
			"max": [ 0.9621139, 0.9937999, 0.9999976 ],
			"min": [ -0.9620875, -0.9999954, -0.8237953 ],
			"type": "VEC3"
		},
		{
			"bufferView": 3,
			"byteOffset": 519104,
			"componentType": 5126,
			"count": 60,
			"max": [ 1, 1, 1, 1 ],
			"min": [ 1, 1, 1, 1 ],
			"type": "VEC4"
		},
		{
			"bufferView": 1,
			"byteOffset": 259552,
			"componentType": 5126,
			"count": 60,
			"max": [ 0.4858034, 0.5484108 ],
			"min": [ 0.4561022, 0.5187096 ],
			"type": "VEC2"
		},
		{
			"bufferView": 1,
			"byteOffset": 260032,
			"componentType": 5126,
			"count": 60,
			"max": [ 0.7392578, 0.9775391 ],
			"min": [ 0.1650391, 0.2314453 ],
			"type": "VEC2"
		},
		{
			"bufferView": 3,
			"byteOffset": 520064,
			"componentType": 5126,
			"count": 60,
			"max": [ 1, 0.1058984, 0.9566795, 1 ],
			"min": [ -0.9999998, -0.1062259, -0.9566956, 1 ],
			"type": "VEC4"
		},
		{
			"bufferView": 0,
			"byteOffset": 70740,
			"componentType": 5123,
			"count": 96,
			"max": [ 59 ],
			"min": [ 0 ],
			"type": "SCALAR"
		}
	],
	"buffers": [
		{
			"byteLength": 1243236,
			"uri": "Unity2GLTF.bin"
		}
	],
	"bufferViews": [
		{
			"buffer": 0,
			"byteLength": 70932,
			"byteOffset": 1172304,
			"target": 34963
		},
		{
			"buffer": 0,
			"byteLength": 260512,
			"byteOffset": 0,
			"byteStride": 8,
			"target": 34962
		},
		{
			"buffer": 0,
			"byteLength": 390768,
			"byteOffset": 260512,
			"byteStride": 12,
			"target": 34962
		},
		{
			"buffer": 0,
			"byteLength": 521024,
			"byteOffset": 651280,
			"byteStride": 16,
			"target": 34962
		}
	],
	"images": [
		{
			"uri": "Assets/F9825F4D241DD44C750AEBD72253CE3F.png"
		}
	],
	"materials": [
		{
			"pbrMetallicRoughness": {
				"baseColorTexture" : {
					"index" : 0,
					"texCoord" : 0
				},
				"baseColorFactor": [1, 1, 1, 1],
				"metallicFactor": 0,
				"roughnessFactor": 0.6
			},
			"emissiveFactor": [0, 0, 0],
			"doubleSided": false,
			"name": "Standard"
		},
		{
			"pbrMetallicRoughness": {
				"baseColorTexture" : {
					"index" : 0,
					"texCoord" : 0
				},
				"baseColorFactor": [1, 1, 1, 1],
				"metallicFactor": 0,
				"roughnessFactor": 0.6
			},
			"emissiveFactor": [0, 0, 0],
			"doubleSided": false,
			"name": "Standard"
		},
		{
			"pbrMetallicRoughness": {
				"baseColorTexture" : {
					"index" : 0,
					"texCoord" : 0
				},
				"baseColorFactor": [1, 1, 1, 1],
				"metallicFactor": 0,
				"roughnessFactor": 0.6
			},
			"emissiveFactor": [0, 0, 0],
			"doubleSided": false,
			"name": "Standard"
		},
		{
			"pbrMetallicRoughness": {
				"baseColorTexture" : {
					"index" : 0,
					"texCoord" : 0
				},
				"baseColorFactor": [1, 1, 1, 1],
				"metallicFactor": 0,
				"roughnessFactor": 0.6
			},
			"emissiveFactor": [0, 0, 0],
			"doubleSided": false,
			"name": "Standard"
		},
		{
			"pbrMetallicRoughness": {
				"baseColorTexture" : {
					"index" : 0,
					"texCoord" : 0
				},
				"baseColorFactor": [1, 1, 1, 1],
				"metallicFactor": 0,
				"roughnessFactor": 0.6
			},
			"emissiveFactor": [0, 0, 0],
			"doubleSided": false,
			"name": "Standard"
		},
		{
			"pbrMetallicRoughness": {
				"baseColorTexture" : {
					"index" : 0,
					"texCoord" : 0
				},
				"baseColorFactor": [1, 1, 1, 1],
				"metallicFactor": 0,
				"roughnessFactor": 0.6
			},
			"emissiveFactor": [0, 0, 0],
			"doubleSided": false,
			"name": "Standard"
		},
		{
			"pbrMetallicRoughness": {
				"baseColorTexture" : {
					"index" : 0,
					"texCoord" : 0
				},
				"baseColorFactor": [1, 1, 1, 1],
				"metallicFactor": 0,
				"roughnessFactor": 0.6
			},
			"emissiveFactor": [0, 0, 0],
			"doubleSided": false,
			"name": "Standard"
		},
		{
			"pbrMetallicRoughness": {
				"baseColorTexture" : {
					"index" : 0,
					"texCoord" : 0
				},
				"baseColorFactor": [1, 1, 1, 1],
				"metallicFactor": 0,
				"roughnessFactor": 0.6
			},
			"emissiveFactor": [0, 0, 0],
			"doubleSided": false,
			"name": "Standard"
		}
	],
	"meshes": [
		{
			"name": "mesh_Lo-_01_Instance_-44158Lo-_01",
			"primitives": [
				{
					"attributes": {
						"POSITION": 0,
						"NORMAL": 1,
						"COLOR_0": 2,
						"TEXCOORD_0": 3,
						"TEXCOORD_1": 4,
						"TANGENT": 5
					},
					"indices": 6,
					"material": 0,
					"mode": 4
				}
			]
		},
		{
			"name": "mesh_Lo-A_01_Instance_-44160Lo-A_01",
			"primitives": [
				{
					"attributes": {
						"POSITION": 7,
						"NORMAL": 8,
						"COLOR_0": 9,
						"TEXCOORD_0": 10,
						"TEXCOORD_1": 11,
						"TANGENT": 12
					},
					"indices": 13,
					"material": 1,
					"mode": 4
				}
			]
		},
		{
			"name": "mesh_Lo-C_01_Instance_-44162Lo-C_01",
			"primitives": [
				{
					"attributes": {
						"POSITION": 14,
						"NORMAL": 15,
						"COLOR_0": 16,
						"TEXCOORD_0": 17,
						"TEXCOORD_1": 18,
						"TANGENT": 19
					},
					"indices": 20,
					"material": 2,
					"mode": 4
				}
			]
		},
		{
			"name": "mesh_Lo-E_01_Instance_-44164Lo-E_01",
			"primitives": [
				{
					"attributes": {
						"POSITION": 21,
						"NORMAL": 22,
						"COLOR_0": 23,
						"TEXCOORD_0": 24,
						"TEXCOORD_1": 25,
						"TANGENT": 26
					},
					"indices": 27,
					"material": 3,
					"mode": 4
				}
			]
		},
		{
			"name": "mesh_Lo-D_01_Instance_-44166Lo-D_01",
			"primitives": [
				{
					"attributes": {
						"POSITION": 28,
						"NORMAL": 29,
						"COLOR_0": 30,
						"TEXCOORD_0": 31,
						"TEXCOORD_1": 32,
						"TANGENT": 33
					},
					"indices": 34,
					"material": 4,
					"mode": 4
				}
			]
		},
		{
			"name": "mesh_Lo-G_01_Instance_-44168Lo-G_01",
			"primitives": [
				{
					"attributes": {
						"POSITION": 35,
						"NORMAL": 36,
						"COLOR_0": 37,
						"TEXCOORD_0": 38,
						"TEXCOORD_1": 39,
						"TANGENT": 40
					},
					"indices": 41,
					"material": 5,
					"mode": 4
				}
			]
		},
		{
			"name": "mesh_Lo-B_01_Instance_-44170Lo-B_01",
			"primitives": [
				{
					"attributes": {
						"POSITION": 42,
						"NORMAL": 43,
						"COLOR_0": 44,
						"TEXCOORD_0": 45,
						"TEXCOORD_1": 46,
						"TANGENT": 47
					},
					"indices": 48,
					"material": 6,
					"mode": 4
				}
			]
		},
		{
			"name": "mesh_Lo-F_01_Instance_-44172Lo-F_01",
			"primitives": [
				{
					"attributes": {
						"POSITION": 49,
						"NORMAL": 50,
						"COLOR_0": 51,
						"TEXCOORD_0": 52,
						"TEXCOORD_1": 53,
						"TANGENT": 54
					},
					"indices": 55,
					"material": 7,
					"mode": 4
				}
			]
		}
	],
	"nodes": [
		{
			"name": "UnityGlTF_correctionMatrix",
			"children": [
				1
			],
			"matrix": [-1, 0, -8.742278E-08, 0, 0, 1, 0, 0, 8.742278E-08, 0, -1, 0, 0, 0, 0, 1]
		},
		{
			"name": "node_World_-15956",
			"children": [
				2,
				3
			],
			"matrix": [1, 0, 0, 0, 0, 1, 0, 0, 0, 0, 1, 0, 0, 0, 0, 1]
		},
		{
			"name": "node_Buildings_-15962"
		},
		{
			"name": "node_FloorPlan_-15966",
			"children": [
				4,
				20,
				21,
				22,
				23,
				24,
				25,
				26,
				27,
				28,
				29,
				30,
				31,
				32,
				33,
				34,
				35,
				36,
				37,
				38,
				39
			]
		},
		{
			"name": "node_Placements_-15972",
			"children": [
				5
			]
		},
		{
			"name": "node__-44062",
			"children": [
				6
			],
			"translation": [ 1.236609, 0.009999275, 0.6979752],
			"rotation": [0, 1, 0, 4.371139E-08]
		},
		{
			"name": "node_RealObject_-44068",
			"children": [
				7
			]
		},
		{
			"name": "node_Body_-44074",
			"children": [
				8,
				9,
				10,
				11,
				12,
				18
			]
		},
		{
			"name": "node_Lo-HParticle_View_01a_01_-44080"
		},
		{
			"name": "node_Lo-HParticle_View_01a_01_1_-44084"
		},
		{
			"name": "node_Lo-HParticle_View_01a_01_2_-44088"
		},
		{
			"name": "node_Lo-_01_-44092",
			"mesh": 0,
			"rotation": [-0.7071068, 0, 0, -0.7071068]
		},
		{
			"name": "node_Lo-A_01_-44100",
			"mesh": 1,
			"children": [
				13,
				16
			],
			"translation": [ -1.724995E-07, 2.935544, 3.946328],
			"rotation": [0.9068882, 0, 0, 0.4213715]
		},
		{
			"name": "node_Lo-C_01_-44108",
			"mesh": 2,
			"children": [
				14
			],
			"translation": [ 3.170574E-07, -8.351896, -0.05744219],
			"rotation": [0.7235845, 0, 0, -0.6902357]
		},
		{
			"name": "node_Lo-E_01_-44116",
			"mesh": 3,
			"children": [
				15
			],
			"translation": [ -2.073759E-07, 8.838778, -0.7948873],
			"rotation": [-0.5406164, 0, 0, -0.8412693]
		},
		{
			"name": "node_SubModelNode001_-44124",
			"translation": [ 0.00886755, -5.797421, 0.2936068],
			"scale": [ 0.05537246, 0.05537246, 0.05537246],
			"rotation": [0.7071068, 1.067702E-07, -2.356979E-15, -0.7071068]
		},
		{
			"name": "node_Lo-D_01_-44128",
			"mesh": 4,
			"children": [
				17
			],
			"translation": [ 2.584951E-07, -5.913593, 0.03709507],
			"rotation": [-0.08574946, 0, 0, -0.9963167]
		},
		{
			"name": "node_Lo-G_01_-44136",
			"mesh": 5,
			"translation": [ 0.01959847, -1.983285, -0.3708762],
			"rotation": [-0.08622354, 0, 0, -0.9962758]
		},
		{
			"name": "node_Lo-B_01_-44144",
			"mesh": 6,
			"children": [
				19
			],
			"translation": [ -1.461318E-07, 2.593526, 3.343105],
			"rotation": [0.9191533, 0, 0, 0.3939]
		},
		{
			"name": "node_Lo-F_01_-44152",
			"mesh": 7,
			"translation": [ 3.536488E-08, -0.9064446, -0.5212457],
			"rotation": [-0.2564898, 0, 0, -0.966547]
		},
		{
			"name": "node_Routes_-15988"
		},
		{
			"name": "node_Text3Ds_-15992"
		},
		{
			"name": "node_WayPoints_-15996"
		},
		{
			"name": "node_HeatmapObjs_-16000"
		},
		{
			"name": "node_PosPoints_-16004"
		},
		{
			"name": "node_PipeLines_-16008"
		},
		{
			"name": "node_LeakWaterLines_-16012"
		},
		{
			"name": "node_lines_-16016"
		},
		{
			"name": "node_curveLines_-16020"
		},
		{
			"name": "node_arrowLines_-16024"
		},
		{
			"name": "node_CombineWall_-16028"
		},
		{
			"name": "node_CombineFloor_-16032"
		},
		{
			"name": "node_CombineCeiling_-16036"
		},
		{
			"name": "node_CombineDoorOrWin_-16044"
		},
		{
			"name": "node_CombinePlacement_-16048"
		},
		{
			"name": "node_DoorOrWins_-16052"
		},
		{
			"name": "node_ArrowDataLines_-16056"
		},
		{
			"name": "node_Polygon_-16060"
		},
		{
			"name": "node_CubePolygon_-16064"
		},
		{
			"name": "node_ColliderCube_-16068",
			"scale": [ 0, 0, 0]
		}
	],
	"samplers": [
		{
			"magFilter": 9729,
			"minFilter": 9985,
			"wrapS": 10497,
			"wrapT": 10497
		}
	],
	"scenes": [
		{
			"name":"defaultScene",
			"nodes": [
				0
			]
		}
	],
	"scene": 0,
	"textures": [
		{
			"sampler": 0,
			"source": 0
		}
	]
}