<?xml version="1.0" encoding="UTF-8"?>
<svg width="167px" height="126px" viewBox="0 0 167 126" version="1.1" xmlns="http://www.w3.org/2000/svg" xmlns:xlink="http://www.w3.org/1999/xlink">
    <title>cctv 2</title>
    <g id="Page-1" stroke="none" stroke-width="1" fill="none" fill-rule="evenodd">
        <g id="cctv" transform="translate(-0.000000, 0.000000)" fill="#BB4C2C" fill-rule="nonzero">
            <path d="M134.648438,0.151041602 C131.481771,-0.0989583984 128.148438,0.651041602 125.065104,2.3177084 L52.9817709,43.984375 C44.9817709,48.6510416 42.3151043,58.984375 46.8984375,66.8177084 L59.3984375,88.4010416 C61.5814588,92.2527309 65.2140017,95.0715896 69.4871131,96.2298689 C73.7602246,97.3881482 78.319079,96.7896683 82.1484375,94.5677084 L97.1484375,85.9010416 C99.3984375,89.734375 102.731771,92.8177082 106.815104,94.5677084 L106.815104,109.317708 C106.815104,118.401042 114.231771,125.651042 123.481771,125.651042 L166.731771,125.651042 L166.731771,109.317708 L123.481771,109.317708 L123.481771,94.5677084 C131.015311,91.2801582 135.911649,83.8703658 135.981771,75.6510416 C135.981771,71.8177082 134.981771,68.234375 133.148437,65.0677084 L154.231771,52.9010416 C162.315104,48.234375 165.065104,38.1510416 160.398438,30.0677084 L147.898438,8.484375 C145.065104,3.484375 139.981771,0.651041602 134.648437,0.151041602 M35.2317709,68.734375 L0.0651041016,74.5677084 L6.3151041,85.4010416 L22.9817709,114.234375 L29.2317709,125.067708 L51.8984375,97.5677084 L35.2317709,68.734375 L35.2317709,68.734375 Z" id="Shape"></path>
        </g>
    </g>
</svg>